#!OML:ASF G:\JayActor3\Patient Classification 1\Patient 1\Session 6\male.ASF
:FULLY-SPECIFIED
:DEGREES
1221
root 7.48392 16.2525 -1.68297 510.653 -79.7202 -516.384
lowerback 1.19079 -1.70694 2.83424
upperback 5.21508 -2.59492 2.49587
thorax 4.71617 -1.30554 0.913982
lowerneck 13.7718 -13.3331 -4.75212
upperneck -7.45933 -17.8865 8.59608
head -3.18982 -9.23327 4.35235
rclavicle 2.2413e-014 -2.22639e-014
rhumerus -50.6973 13.3403 -94.8193
rradius 122.884
rwrist -82.7915
rhand -40.4542 -29.5196
rfingers 7.12502
rthumb -13.4056 -59.0683
lclavicle 2.2413e-014 -2.22639e-014
lhumerus -43.1132 27.0934 72.6836
lradius 25.3633
lwrist 28.5115
lhand -12.7195 10.1611
lfingers 7.12502
lthumb 13.3636 39.7125
rfemur -6.26519 -7.44077 25.9221
rtibia 35.247
rfoot -28.236 -14.4623
rtoes 7.21829
lfemur -8.66424 10.1579 -10.3486
ltibia 36.769
lfoot -19.8167 1.40507
ltoes -13.4399
1222
root 7.48231 16.2518 -1.67925 511.82 -79.3443 -517.519
lowerback 1.12655 -1.70831 2.82532
upperback 5.23299 -2.60251 2.50876
thorax 4.77256 -1.30996 0.929575
lowerneck 13.8607 -13.2591 -4.73563
upperneck -7.44126 -17.79 8.56085
head -3.20988 -9.18475 4.34412
rclavicle 8.39865e-015 -3.26007e-014
rhumerus -50.6704 13.3428 -94.9127
rradius 122.866
rwrist -82.7468
rhand -40.4451 -29.3624
rfingers 7.12502
rthumb -13.3968 -58.9117
lclavicle 8.39865e-015 -3.26007e-014
lhumerus -42.7269 26.6102 73.169
lradius 25.9842
lwrist 28.6242
lhand -12.6929 10.1011
lfingers 7.12502
lthumb 13.3892 39.6508
rfemur -6.37452 -7.28285 25.8869
rtibia 35.3343
rfoot -28.1214 -14.3437
rtoes 7.09191
lfemur -8.51264 9.82788 -10.417
ltibia 36.2806
lfoot -19.1962 1.13403
ltoes -12.5606
1223
root 7.48043 16.251 -1.67528 512.873 -78.9685 -518.544
lowerback 1.0715 -1.71404 2.81235
upperback 5.24927 -2.61529 2.52066
thorax 4.82215 -1.31719 0.94656
lowerneck 13.944 -13.181 -4.7264
upperneck -7.43214 -17.6878 8.54021
head -3.23018 -9.13408 4.34068
rclavicle 1.31695e-014 4.96962e-014
rhumerus -50.6514 13.3563 -95.0159
rradius 122.855
rwrist -82.7091
rhand -40.4077 -29.1754
rfingers 7.12502
rthumb -13.3608 -58.727
lclavicle 1.31695e-014 4.96962e-014
lhumerus -42.3628 26.1697 73.5873
lradius 26.6106
lwrist 28.7291
lhand -12.7549 9.97889
lfingers 7.12502
lthumb 13.3295 39.5326
rfemur -6.4757 -7.11927 25.8565
rtibia 35.4138
rfoot -28.0087 -14.2367
rtoes 6.97013
lfemur -8.33888 9.48967 -10.488
ltibia 35.8002
lfoot -18.5745 1.16729
ltoes -11.3134
1224
root 7.47868 16.2502 -1.67097 513.813 -78.5944 -519.458
lowerback 1.02497 -1.72443 2.79574
upperback 5.26576 -2.63395 2.53299
thorax 4.8673 -1.32764 0.966115
lowerneck 14.0137 -13.1018 -4.72438
upperneck -7.43297 -17.5835 8.53652
head -3.24934 -9.08308 4.34222
rclavicle -1.48592e-014 1.86858e-014
rhumerus -50.6367 13.3783 -95.1246
rradius 122.853
rwrist -82.6769
rhand -40.3425 -28.9845
rfingers 7.12502
rthumb -13.2979 -58.5402
lclavicle -1.48592e-014 1.86858e-014
lhumerus -42.0166 25.6964 74.0003
lradius 27.2974
lwrist 28.932
lhand -12.9478 9.8426
lfingers 7.12502
lthumb 13.1435 39.4084
rfemur -6.5719 -6.94982 25.8344
rtibia 35.4836
rfoot -27.8964 -14.1437
rtoes 6.85833
lfemur -8.14765 9.15733 -10.5583
ltibia 35.3506
lfoot -18.0351 1.46192
ltoes -9.92335
1225
root 7.47688 16.2494 -1.66649 514.544 -78.2211 -520.168
lowerback 0.984449 -1.74235 2.7934
upperback 5.28786 -2.66373 2.55118
thorax 4.91474 -1.34337 0.983525
lowerneck 14.0682 -13.0209 -4.72951
upperneck -7.44706 -17.476 8.5544
head -3.26786 -9.03148 4.35013
rclavicle 2.09718e-014 -1.27222e-014
rhumerus -50.619 13.4129 -95.2395
rradius 122.857
rwrist -82.6511
rhand -40.2762 -28.8303
rfingers 7.12502
rthumb -13.234 -58.3902
lclavicle 2.09718e-014 -1.27222e-014
lhumerus -41.6903 25.1873 74.4095
lradius 28.0443
lwrist 29.2151
lhand -13.2348 9.6718
lfingers 7.12502
lthumb 12.8668 39.2552
rfemur -6.65351 -6.7787 25.8428
rtibia 35.5423
rfoot -27.7927 -14.0678
rtoes 6.75879
lfemur -7.93326 8.84961 -10.601
ltibia 34.9472
lfoot -17.6466 1.91906
ltoes -8.67289
1226
root 7.47501 16.2484 -1.66156 515.169 -77.8649 -520.777
lowerback 0.948227 -1.76925 2.78607
upperback 5.31275 -2.70544 2.56814
thorax 4.96284 -1.3653 1.00211
lowerneck 14.1059 -12.9406 -4.73818
upperneck -7.4665 -17.368 8.58868
head -3.28364 -8.98048 4.36202
rclavicle 1.02871e-014 3.33958e-014
rhumerus -50.6 13.4609 -95.3603
rradius 122.865
rwrist -82.6239
rhand -40.2116 -28.719
rfingers 7.12502
rthumb -13.1718 -58.283
lclavicle 1.02871e-014 3.33958e-014
lhumerus -41.3777 24.7052 74.7721
lradius 28.7868
lwrist 29.4714
lhand -13.5461 9.42738
lfingers 7.12502
lthumb 12.5667 39.0294
rfemur -6.72388 -6.61788 25.8538
rtibia 35.5923
rfoot -27.6944 -14.0056
rtoes 6.66453
lfemur -7.69815 8.5763 -10.6434
ltibia 34.5911
lfoot -17.4421 2.43755
ltoes -7.74919
1227
root 7.47311 16.2474 -1.65634 515.688 -77.5235 -521.283
lowerback 0.91697 -1.80238 2.78102
upperback 5.33666 -2.75502 2.58135
thorax 5.00684 -1.39096 1.01543
lowerneck 14.1284 -12.8631 -4.74862
upperneck -7.48146 -17.2628 8.6403
head -3.29384 -8.93178 4.37765
rclavicle 7.40473e-015 2.50469e-014
rhumerus -50.5937 13.5075 -95.493
rradius 122.877
rwrist -82.5865
rhand -40.1549 -28.6613
rfingers 7.12502
rthumb -13.1171 -58.2288
lclavicle 7.40473e-015 2.50469e-014
lhumerus -41.0904 24.2127 75.0984
lradius 29.5456
lwrist 29.719
lhand -13.8765 9.16733
lfingers 7.12502
lthumb 12.2482 38.7887
rfemur -6.78557 -6.46143 25.8736
rtibia 35.636
rfoot -27.6003 -13.963
rtoes 6.56811
lfemur -7.44508 8.34467 -10.6815
ltibia 34.2719
lfoot -17.4114 2.94756
ltoes -7.23539
1228
root 7.47083 16.2462 -1.65086 516.11 -77.1995 -521.698
lowerback 0.887981 -1.84093 2.77535
upperback 5.36031 -2.81156 2.59197
thorax 5.04923 -1.42005 1.02622
lowerneck 14.1377 -12.7896 -4.75865
upperneck -7.48652 -17.1625 8.70239
head -3.29778 -8.88614 4.39477
rclavicle 2.78299e-014 7.15625e-015
rhumerus -50.601 13.5534 -95.6335
rradius 122.888
rwrist -82.5333
rhand -40.1127 -28.6193
rfingers 7.12502
rthumb -13.0764 -58.1893
lclavicle 2.78299e-014 7.15625e-015
lhumerus -40.8338 23.7124 75.3884
lradius 30.3225
lwrist 29.9449
lhand -14.2137 8.93851
lfingers 7.12502
lthumb 11.923 38.579
rfemur -6.83564 -6.31568 25.8985
rtibia 35.6778
rfoot -27.5119 -13.9355
rtoes 6.46471
lfemur -7.17074 8.14981 -10.7177
ltibia 33.9687
lfoot -17.5088 3.40652
ltoes -6.98479
1229
root 7.46823 16.2446 -1.64528 516.459 -76.8971 -522.045
lowerback 0.862031 -1.88335 2.7648
upperback 5.38092 -2.87246 2.59853
thorax 5.0867 -1.45136 1.03547
lowerneck 14.1312 -12.7216 -4.76589
upperneck -7.47355 -17.069 8.77043
head -3.29303 -8.84426 4.41123
rclavicle -5.31749e-015 -3.85642e-014
rhumerus -50.6198 13.5934 -95.7761
rradius 122.893
rwrist -82.4667
rhand -40.0713 -28.5888
rfingers 7.12502
rthumb -13.0365 -58.1614
lclavicle -5.31749e-015 -3.85642e-014
lhumerus -40.6011 23.2113 75.6382
lradius 31.0997
lwrist 30.1551
lhand -14.5535 8.72601
lfingers 7.12502
lthumb 11.5954 38.3852
rfemur -6.87821 -6.18026 25.9247
rtibia 35.7198
rfoot -27.4282 -13.9254
rtoes 6.34642
lfemur -6.88229 7.98063 -10.7597
ltibia 33.6587
lfoot -17.6838 3.84156
ltoes -6.84806
1230
root 7.46544 16.2431 -1.63957 516.734 -76.6112 -522.32
lowerback 0.838347 -1.92694 2.75674
upperback 5.39769 -2.9342 2.60086
thorax 5.11852 -1.48281 1.039
lowerneck 14.1022 -12.6591 -4.76681
upperneck -7.43647 -16.9822 8.84173
head -3.27724 -8.80588 4.42497
rclavicle 1.32192e-014 -2.18663e-014
rhumerus -50.6499 13.6226 -95.9201
rradius 122.891
rwrist -82.3823
rhand -40.0328 -28.5752
rfingers 7.12502
rthumb -12.9994 -58.1502
lclavicle 1.32192e-014 -2.18663e-014
lhumerus -40.3769 22.7183 75.8484
lradius 31.8564
lwrist 30.3317
lhand -14.9313 8.54001
lfingers 7.12502
lthumb 11.231 38.2194
rfemur -6.91868 -6.0527 25.9573
rtibia 35.7614
rfoot -27.3449 -13.9288
rtoes 6.21492
lfemur -6.58461 7.82577 -10.804
ltibia 33.3255
lfoot -17.888 4.32205
ltoes -6.71582
